HIERARCHY
ROOT Hips
{
    OFFSET   0.000000   0.000000   0.000000
    CHANNELS 6 Xposition Yposition Zposition Zrotation Xrotation Yrotation
    JOINT Chest
    {
        OFFSET   0.000000   8.007230   0.000000
        CHANNELS 3 Zrotation Xrotation Yrotation
        JOINT Chest2
        {
            OFFSET   0.000000  22.077100   0.000000
            CHANNELS 3 Zrotation Xrotation Yrotation
            JOINT Neck
            {
                OFFSET   0.000000  23.254700   0.000000
                CHANNELS 3 Zrotation Xrotation Yrotation
                JOINT Head
                {
                    OFFSET   0.000010  14.370000   1.956610
                    CHANNELS 3 Zrotation Xrotation Yrotation
                    End Site
                    {
                        OFFSET   0.000000  19.566000   0.000000
                    }
                }
            }
            JOINT LeftCollar
            {
                OFFSET   3.911900  19.017000  -0.467063
                CHANNELS 3 Zrotation Xrotation Yrotation
                JOINT LeftShoulder
                {
                    OFFSET  10.383700   0.000000   0.000000
                    CHANNELS 3 Zrotation Xrotation Yrotation
                    JOINT LeftElbow
                    {
                        OFFSET  26.662100   0.001671   0.000522
                        CHANNELS 3 Zrotation Xrotation Yrotation
                        JOINT LeftWrist
                        {
                            OFFSET  28.869000   0.000037  -0.000114
                            CHANNELS 3 Zrotation Xrotation Yrotation
                            JOINT LeftFinger0
                            {
                                OFFSET   2.044650  -2.323450   3.252850
                                CHANNELS 3 Zrotation Xrotation Yrotation
                                JOINT LeftFinger01
                                {
                                    OFFSET   3.088140   0.000000   0.000000
                                    CHANNELS 3 Zrotation Xrotation Yrotation
                                    JOINT LeftFinger02
                                    {
                                        OFFSET   2.639460   0.000000   0.000000
                                        CHANNELS 3 Zrotation Xrotation Yrotation
                                        End Site
                                        {
                                            OFFSET   2.582190   0.000000   0.000000
                                        }
                                    }
                                }
                            }
                            JOINT LeftFinger1
                            {
                                OFFSET   8.364480   0.000000   3.252850
                                CHANNELS 3 Zrotation Xrotation Yrotation
                                JOINT LeftFinger11
                                {
                                    OFFSET   4.646930   0.000000   0.000000
                                    CHANNELS 3 Zrotation Xrotation Yrotation
                                    JOINT LeftFinger12
                                    {
                                        OFFSET   2.323470   0.000000   0.000000
                                        CHANNELS 3 Zrotation Xrotation Yrotation
                                        End Site
                                        {
                                            OFFSET   2.273050   0.000000   0.000000
                                        }
                                    }
                                }
                            }
                            JOINT LeftFinger2
                            {
                                OFFSET   8.364490   0.000016   1.078090
                                CHANNELS 3 Zrotation Xrotation Yrotation
                                JOINT LeftFinger21
                                {
                                    OFFSET   5.111620   0.000000   0.000000
                                    CHANNELS 3 Zrotation Xrotation Yrotation
                                    JOINT LeftFinger22
                                    {
                                        OFFSET   2.788150   0.000013   0.000000
                                        CHANNELS 3 Zrotation Xrotation Yrotation
                                        End Site
                                        {
                                            OFFSET   2.727660   0.000000   0.000000
                                        }
                                    }
                                }
                            }
                            JOINT LeftFinger3
                            {
                                OFFSET   7.899780   0.000016  -1.078090
                                CHANNELS 3 Zrotation Xrotation Yrotation
                                JOINT LeftFinger31
                                {
                                    OFFSET   4.646930   0.000000   0.000000
                                    CHANNELS 3 Zrotation Xrotation Yrotation
                                    JOINT LeftFinger32
                                    {
                                        OFFSET   2.323470   0.000000   0.000000
                                        CHANNELS 3 Zrotation Xrotation Yrotation
                                        End Site
                                        {
                                            OFFSET   2.273050   0.000000   0.000000
                                        }
                                    }
                                }
                            }
                            JOINT LeftFinger4
                            {
                                OFFSET   7.435080   0.000000  -3.252850
                                CHANNELS 3 Zrotation Xrotation Yrotation
                                JOINT LeftFinger41
                                {
                                    OFFSET   3.717550   0.000000   0.000000
                                    CHANNELS 3 Zrotation Xrotation Yrotation
                                    JOINT LeftFinger42
                                    {
                                        OFFSET   1.858760   0.000000   0.000000
                                        CHANNELS 3 Zrotation Xrotation Yrotation
                                        End Site
                                        {
                                            OFFSET   1.818440   0.000000   0.000000
                                        }
                                    }
                                }
                            }
                        }
                    }
                }
            }
            JOINT RightCollar
            {
                OFFSET  -3.911900  19.017000  -0.467064
                CHANNELS 3 Zrotation Xrotation Yrotation
                JOINT RightShoulder
                {
                    OFFSET -10.383700   0.000000   0.000000
                    CHANNELS 3 Zrotation Xrotation Yrotation
                    JOINT RightElbow
                    {
                        OFFSET -26.662100   0.001633   0.000260
                        CHANNELS 3 Zrotation Xrotation Yrotation
                        JOINT RightWrist
                        {
                            OFFSET -28.869000  -0.000045  -0.000080
                            CHANNELS 3 Zrotation Xrotation Yrotation
                            JOINT RightFinger0
                            {
                                OFFSET  -2.044660  -2.323490   3.252850
                                CHANNELS 3 Zrotation Xrotation Yrotation
                                JOINT RightFinger01
                                {
                                    OFFSET  -3.088140   0.000000   0.000000
                                    CHANNELS 3 Zrotation Xrotation Yrotation
                                    JOINT RightFinger02
                                    {
                                        OFFSET  -2.639450   0.000000   0.000000
                                        CHANNELS 3 Zrotation Xrotation Yrotation
                                        End Site
                                        {
                                            OFFSET  -2.582190   0.000000   0.000000
                                        }
                                    }
                                }
                            }
                            JOINT RightFinger1
                            {
                                OFFSET  -8.364480   0.000000   3.252850
                                CHANNELS 3 Zrotation Xrotation Yrotation
                                JOINT RightFinger11
                                {
                                    OFFSET  -4.646920   0.000000   0.000000
                                    CHANNELS 3 Zrotation Xrotation Yrotation
                                    JOINT RightFinger12
                                    {
                                        OFFSET  -2.323470   0.000000   0.000000
                                        CHANNELS 3 Zrotation Xrotation Yrotation
                                        End Site
                                        {
                                            OFFSET  -2.273050   0.000000   0.000000
                                        }
                                    }
                                }
                            }
                            JOINT RightFinger2
                            {
                                OFFSET  -8.364480   0.000000   1.078090
                                CHANNELS 3 Zrotation Xrotation Yrotation
                                JOINT RightFinger21
                                {
                                    OFFSET  -5.111610   0.000000   0.000000
                                    CHANNELS 3 Zrotation Xrotation Yrotation
                                    JOINT RightFinger22
                                    {
                                        OFFSET  -2.788160   0.000000   0.000000
                                        CHANNELS 3 Zrotation Xrotation Yrotation
                                        End Site
                                        {
                                            OFFSET  -2.727660   0.000000   0.000000
                                        }
                                    }
                                }
                            }
                            JOINT RightFinger3
                            {
                                OFFSET  -7.899780   0.000000  -1.078090
                                CHANNELS 3 Zrotation Xrotation Yrotation
                                JOINT RightFinger31
                                {
                                    OFFSET  -4.646930   0.000000   0.000000
                                    CHANNELS 3 Zrotation Xrotation Yrotation
                                    JOINT RightFinger32
                                    {
                                        OFFSET  -2.323470   0.000000   0.000000
                                        CHANNELS 3 Zrotation Xrotation Yrotation
                                        End Site
                                        {
                                            OFFSET  -2.273050   0.000000   0.000000
                                        }
                                    }
                                }
                            }
                            JOINT RightFinger4
                            {
                                OFFSET  -7.435090   0.000000  -3.252850
                                CHANNELS 3 Zrotation Xrotation Yrotation
                                JOINT RightFinger41
                                {
                                    OFFSET  -3.717550   0.000000   0.000000
                                    CHANNELS 3 Zrotation Xrotation Yrotation
                                    JOINT RightFinger42
                                    {
                                        OFFSET  -1.858760   0.000000   0.000000
                                        CHANNELS 3 Zrotation Xrotation Yrotation
                                        End Site
                                        {
                                            OFFSET  -1.818440   0.000000   0.000000
                                        }
                                    }
                                }
                            }
                        }
                    }
                }
            }
        }
    }
    JOINT LeftHip
    {
        OFFSET   9.782990   0.000000   0.000000
        CHANNELS 3 Zrotation Xrotation Yrotation
        JOINT LeftKnee
        {
            OFFSET  -0.000063 -41.789100   0.001657
            CHANNELS 3 Zrotation Xrotation Yrotation
            JOINT LeftAnkle
            {
                OFFSET   0.000078 -41.133200  -0.000113
                CHANNELS 3 Zrotation Xrotation Yrotation
                JOINT LeftToe
                {
                    OFFSET   0.000000  -6.358970  14.674500
                    CHANNELS 3 Zrotation Xrotation Yrotation
                    End Site
                    {
                        OFFSET   0.000000   0.000000   3.913200
                    }
                }
            }
        }
    }
    JOINT RightHip
    {
        OFFSET  -9.782990   0.000000   0.000000
        CHANNELS 3 Zrotation Xrotation Yrotation
        JOINT RightKnee
        {
            OFFSET   0.000053 -41.789200   0.000277
            CHANNELS 3 Zrotation Xrotation Yrotation
            JOINT RightAnkle
            {
                OFFSET   0.000030 -41.133200  -0.000150
                CHANNELS 3 Zrotation Xrotation Yrotation
                JOINT RightToe
                {
                    OFFSET   0.000000  -6.358960  14.674500
                    CHANNELS 3 Zrotation Xrotation Yrotation
                    End Site
                    {
                        OFFSET   0.000000   0.000000   3.913200
                    }
                }
            }
        }
    }
}
MOTION
Frames: 4
Frame Time:   0.016667
 -1.203370  89.585500  -0.659104  -3.294580 -12.937000  -2.069330   1.084770   6.697370   0.096529   2.180700  13.395400   0.065027   0.626408   1.573950  -0.011092   1.030820   3.190230   1.484950  -6.149640  -1.122540   0.035506 -59.785800  14.742600 -29.350900  45.208100  -7.541640 -77.380800  62.411200  29.071100 -42.575200  61.019900  57.525600 -110.001000 -40.511200   0.002659   0.002376 -15.258300   0.010765  -0.011036  13.394500  -4.332070 -17.670600  -0.000000  -0.008774  -0.001402  -0.000000  -0.005808  -0.001669 -75.644200   0.000728  -0.004946 -75.644200   0.004962   0.007388 -56.733100   0.002445   0.002837 -70.716100  -5.250090   1.834010 -70.800100  -0.000413   0.004424 -53.100100  -0.000119  -0.000299 -67.994500  -9.285460   3.719950 -102.446000   0.016439   0.002297 -68.229100   0.003045   0.010627  10.369700   2.715600  11.566600  47.442800   8.070380  30.531800 -51.110200 -10.097800  55.656000 -63.903900  16.164700  42.696700 -58.292600  53.499400 107.542000  28.624800   0.015640  -0.008564   9.362130   0.013580   0.024632  -4.958680  -2.705750  28.530800   0.000983   0.000475   0.000080   0.000682   0.000374  -0.006122  89.002200   0.000000  -0.001054 107.903000  -0.023730  -0.004482  80.281200  -0.001268   0.007379  84.922200  -4.969340  -0.465394  84.941400  -0.022682  -0.008989  63.706100  -0.013786   0.012089  86.868200  -9.968740  -0.595519 109.993000  -0.002901  -0.003331  79.999900   0.000000  -0.000502   2.858660  14.680900   2.739290   1.032260   0.046802   5.607060  -1.098370  -2.887390   2.621570   0.000000   0.000000  -0.000000   5.882880  12.210800  -0.425262  -2.290540   4.548920  -6.514020  -1.070250  -5.216220  -1.202880   0.000000   0.000000   0.000000
 -1.207660  89.579900  -0.613404  -3.277840 -12.887200  -2.077580   1.088280   6.671400   0.068755   2.190860  13.342700   0.009035   0.647825   1.579470  -0.011237   1.066640   3.202330   2.983130  -6.105850  -1.057710   0.108216 -59.161000  15.187100 -29.547800  45.430800  -7.642180 -76.951200  62.693800  28.767700 -42.204600  49.847500  55.949600 -95.539700 -46.839600   0.001727   0.009688 -21.767100   0.004525  -0.003041  13.012600  -3.927960 -16.767700  -0.000000  -0.008713  -0.001337  -0.000000  -0.005762  -0.001591 -75.090000  -0.008947   0.033844 -75.089800  -0.033692   0.007219 -56.317400  -0.015698  -0.019908 -70.773800  -5.243440   1.811520 -70.858200   0.012476   0.004715 -53.143700   0.008011   0.005841 -65.982300  -9.144620   4.121900 -99.457800  -0.106064  -0.015005 -66.238900  -0.018883  -0.068680  10.273400   2.800710  11.556900  45.963000   8.581000  30.456700 -51.281400  -9.516150  55.952300 -64.174000  15.592700  44.255700 -60.690200  54.790400 110.342000  30.598700   0.011353  -0.042446  10.075100   0.002829  -0.013999  -4.904400  -2.496550  27.242000   0.000995   0.000601   0.000009   0.000695   0.000450  -0.006296  89.002300   0.000000  -0.001655 107.210000  -0.008206  -0.004050  80.104000  -0.001284   0.000707  83.914500  -4.968830  -0.529046  83.961900   0.000616  -0.000936  62.971400  -0.000559  -0.000842  84.951500  -9.951140  -0.895417 109.993000  -0.002799  -0.003226  79.999900   0.000036  -0.000490   2.844290  14.676100   2.740450   1.028520   0.019998   5.611300  -1.102960  -2.903790   2.628360  -0.000000   0.000000   0.000000   5.849710  12.222500  -0.449011  -2.275540   4.503790  -6.465830  -1.076740  -5.232940  -1.208820   0.000000   0.000000   0.000000
 -1.213570  89.573100  -0.568981  -3.264870 -12.837000  -2.094570   1.090370   6.653520   0.055330   2.196690  13.306800  -0.018029   0.667840   1.585000  -0.011388   1.099360   3.212920   4.315250  -6.057090  -1.016400   0.183897 -58.785900  15.544000 -29.754600  45.358200  -7.707130 -76.502600  62.720700  28.389700 -40.980900  40.940300  52.153600 -83.941300 -52.152400  -0.001813   0.060876 -27.710000  -0.039156   0.052923  12.394300  -3.116460 -14.358600  -0.000000  -0.008652  -0.001266  -0.000000  -0.005715  -0.001511 -74.535800  -0.017391   0.072634 -74.535500  -0.072347   0.006999 -55.901700  -0.033840  -0.042653 -70.814000  -5.238610   1.793700 -70.898700   0.025365   0.004977 -53.174100   0.015667   0.011980 -64.500500  -9.038480   4.440310 -97.259400  -0.228567  -0.031815 -64.774800  -0.040811  -0.147987  10.196900   2.844560  11.535700  44.579200   9.091280  30.417500 -51.304900  -9.039700  56.175800 -64.212500  15.349000  44.774400 -63.704200  56.431500 113.803000  34.101800   0.001866  -0.099891  11.534600  -0.020052  -0.077936  -5.018020  -2.303580  25.063400   0.001005   0.000729  -0.000059   0.000708   0.000524  -0.006474  89.002300   0.000000  -0.002191 106.003000   0.016490  -0.003786  79.578500  -0.001300  -0.011600  83.208400  -4.967060  -0.580551  83.234000   0.009813   0.002753  62.425500   0.005227  -0.005558  83.040400  -9.929000  -1.195970 109.993000  -0.002698  -0.003126  79.999900   0.000070  -0.000481   2.827480  14.670400   2.741610   1.028470   0.003164   5.624060  -1.106940  -2.924700   2.640240  -0.000000   0.000000   0.000000   5.819350  12.238800  -0.466036  -2.262890   4.450870  -6.419120  -1.081900  -5.246450  -1.210450  -0.000000   0.000000   0.000000
 -1.224840  89.564000  -0.526187  -3.252580 -12.790400  -2.116830   1.090470   6.650580   0.060004   2.196020  13.301300  -0.008503   0.689715   1.582530  -0.011544   1.135270   3.206170   5.415520  -5.991960  -1.020070   0.272797 -58.963700  15.187500 -29.845100  44.367400  -7.260870 -76.732800  62.833300  28.075400 -38.909800  40.953200  51.978900 -84.100200 -52.123400  -0.068820   0.374192 -27.629900  -0.271232   0.381526  11.422300  -2.065470 -10.114200  -0.000000  -0.008593  -0.001190  -0.000000  -0.005669  -0.001428 -75.045400  -0.010738   0.027503 -75.034000  -0.019384   0.006733 -56.275500  -0.012350  -0.009174 -70.577200  -5.261440   1.832790 -70.663300   0.018785   0.005158 -52.997500   0.011887   0.008664 -65.320300  -9.079870   4.241930 -98.476300  -0.136999   0.011053 -65.585400  -0.040435  -0.081987  10.159800   2.791080  11.506000  43.368000   9.546310  30.401600 -51.052200  -8.685490  56.319500 -64.590300  15.272900  44.160400 -63.473200  57.250100 113.266000  37.459700  -0.014649  -0.168853  13.206900  -0.057821  -0.140526  -5.107990  -1.995910  21.658100   0.001014   0.000838  -0.000122   0.000719   0.000594  -0.006649  89.002300  -0.045704  -0.002694 104.683000   0.037657  -0.004015  78.595900  -0.001317  -0.027474  82.532800  -4.958630  -0.641446  82.560000   0.002470  -0.000190  61.920000   0.000644  -0.001790  81.567300  -9.894530  -1.459680 109.993000  -0.002609  -0.003031  79.999900   0.000118  -0.000486   2.808050  14.663600   2.734260   1.030420   0.002117   5.647940  -1.110410  -2.952520   2.654100   0.000000   0.000000   0.000000   5.790330  12.264200  -0.469123  -2.251010   4.387540  -6.387010  -1.088170  -5.258150  -1.206590  -0.000000   0.000000   0.000000
